<svg width="28" height="28" viewBox="0 0 28 28" fill="none" xmlns="http://www.w3.org/2000/svg">
<path d="M14.0731 18.6286C11.7355 18.6286 9.83838 16.7314 9.83838 14.3939C9.83838 12.0563 11.7355 10.1592 14.0731 10.1592C16.4106 10.1592 18.3077 12.0563 18.3077 14.3939C18.3077 16.7314 16.4106 18.6286 14.0731 18.6286ZM14.0731 11.8531C12.6728 11.8531 11.5322 12.9936 11.5322 14.3939C11.5322 15.7941 12.6728 16.9347 14.0731 16.9347C15.4733 16.9347 16.6139 15.7941 16.6139 14.3939C16.6139 12.9936 15.4733 11.8531 14.0731 11.8531Z" fill="#5932EA"/>
<path d="M17.6981 25.9009C17.461 25.9009 17.2238 25.867 16.9867 25.8106C16.2866 25.6186 15.6993 25.1782 15.3267 24.5571L15.1912 24.3313C14.5249 23.1794 13.6102 23.1794 12.944 24.3313L12.8198 24.5458C12.4471 25.1782 11.8599 25.6299 11.1598 25.8106C10.4484 26.0025 9.71434 25.9009 9.09326 25.5283L7.15095 24.4103C6.46211 24.0151 5.96525 23.3714 5.75069 22.5922C5.54743 21.813 5.64906 21.0113 6.04429 20.3224C6.37177 19.7465 6.46211 19.2271 6.27014 18.8996C6.07817 18.5721 5.5926 18.3801 4.92634 18.3801C3.27764 18.3801 1.93384 17.0363 1.93384 15.3876V13.4002C1.93384 11.7515 3.27764 10.4077 4.92634 10.4077C5.5926 10.4077 6.07817 10.2157 6.27014 9.8882C6.46211 9.56072 6.38307 9.04127 6.04429 8.46535C5.64906 7.77651 5.54743 6.96345 5.75069 6.19556C5.95395 5.41638 6.45082 4.77271 7.15095 4.37748L9.10455 3.25953C10.3806 2.50293 12.0632 2.94334 12.8311 4.24197L12.9666 4.46782C13.6328 5.61965 14.5475 5.61965 15.2138 4.46782L15.338 4.25326C16.1059 2.94334 17.7885 2.50293 19.0758 3.27082L21.0181 4.38877C21.7069 4.78401 22.2038 5.42768 22.4184 6.20686C22.6216 6.98604 22.52 7.7878 22.1248 8.47664C21.7973 9.05256 21.7069 9.57201 21.8989 9.89949C22.0909 10.227 22.5765 10.4189 23.2427 10.4189C24.8914 10.4189 26.2352 11.7627 26.2352 13.4114V15.3989C26.2352 17.0476 24.8914 18.3914 23.2427 18.3914C22.5765 18.3914 22.0909 18.5834 21.8989 18.9109C21.7069 19.2384 21.786 19.7578 22.1248 20.3337C22.52 21.0226 22.6329 21.8356 22.4184 22.6035C22.2151 23.3827 21.7182 24.0264 21.0181 24.4216L19.0645 25.5395C18.6354 25.7767 18.1724 25.9009 17.6981 25.9009ZM14.0732 21.7227C15.0783 21.7227 16.0155 22.3551 16.6592 23.473L16.7834 23.6876C16.9189 23.9247 17.1448 24.0941 17.4158 24.1619C17.6868 24.2296 17.9578 24.1957 18.1837 24.0602L20.1373 22.931C20.4309 22.7616 20.6567 22.4793 20.7471 22.1405C20.8374 21.8017 20.7922 21.4517 20.6229 21.1581C19.9792 20.0514 19.9001 18.9109 20.397 18.0414C20.8939 17.1718 21.9215 16.675 23.2088 16.675C23.9316 16.675 24.5075 16.0991 24.5075 15.3763V13.3889C24.5075 12.6774 23.9316 12.0902 23.2088 12.0902C21.9215 12.0902 20.8939 11.5934 20.397 10.7238C19.9001 9.85432 19.9792 8.71378 20.6229 7.60712C20.7922 7.31352 20.8374 6.96345 20.7471 6.62468C20.6567 6.2859 20.4422 6.01489 20.1486 5.83421L18.195 4.71625C17.7094 4.42265 17.0657 4.59204 16.7721 5.0889L16.6479 5.30346C16.0042 6.42141 15.067 7.05379 14.0619 7.05379C13.0569 7.05379 12.1196 6.42141 11.476 5.30346L11.3517 5.07761C11.0694 4.60333 10.4371 4.43394 9.95148 4.71625L7.99789 5.8455C7.70428 6.01489 7.47844 6.2972 7.3881 6.63597C7.29776 6.97474 7.34293 7.32481 7.51231 7.61841C8.15598 8.72508 8.23503 9.86561 7.73816 10.7351C7.24129 11.6047 6.21368 12.1015 4.92634 12.1015C4.20362 12.1015 3.62771 12.6774 3.62771 13.4002V15.3876C3.62771 16.0991 4.20362 16.6863 4.92634 16.6863C6.21368 16.6863 7.24129 17.1831 7.73816 18.0526C8.23503 18.9222 8.15598 20.0627 7.51231 21.1694C7.34293 21.463 7.29776 21.813 7.3881 22.1518C7.47844 22.4906 7.69299 22.7616 7.9866 22.9423L9.94019 24.0602C10.1773 24.207 10.4596 24.2409 10.7194 24.1732C10.9904 24.1054 11.2162 23.9247 11.363 23.6876L11.4873 23.473C12.1309 22.3664 13.0682 21.7227 14.0732 21.7227Z" fill="#5932EA"/>
</svg>
