<svg width="29" height="30" viewBox="0 0 29 30" fill="none" xmlns="http://www.w3.org/2000/svg">
<path d="M9.79696 27.5342H5.01111C2.63003 27.5342 1.48096 26.4325 1.48096 24.1581V5.44116C1.48096 3.16669 2.64188 2.065 5.01111 2.065H9.79696C12.178 2.065 13.3271 3.16669 13.3271 5.44116V24.1581C13.3271 26.4325 12.1662 27.5342 9.79696 27.5342ZM5.01111 3.84193C3.50665 3.84193 3.25788 4.24469 3.25788 5.44116V24.1581C3.25788 25.3545 3.50665 25.7573 5.01111 25.7573H9.79696C11.3014 25.7573 11.5502 25.3545 11.5502 24.1581V5.44116C11.5502 4.24469 11.3014 3.84193 9.79696 3.84193H5.01111Z" fill="#7B7B7B"/>
<path d="M23.4195 16.8727H18.6337C16.2526 16.8727 15.1035 15.771 15.1035 13.4965V5.44116C15.1035 3.16669 16.2644 2.065 18.6337 2.065H23.4195C25.8006 2.065 26.9497 3.16669 26.9497 5.44116V13.4965C26.9497 15.771 25.7887 16.8727 23.4195 16.8727ZM18.6337 3.84193C17.1292 3.84193 16.8804 4.24469 16.8804 5.44116V13.4965C16.8804 14.693 17.1292 15.0958 18.6337 15.0958H23.4195C24.924 15.0958 25.1727 14.693 25.1727 13.4965V5.44116C25.1727 4.24469 24.924 3.84193 23.4195 3.84193H18.6337Z" fill="#7B7B7B"/>
<path d="M23.4195 27.5337H18.6337C16.2526 27.5337 15.1035 26.432 15.1035 24.1575V22.0252C15.1035 19.7507 16.2644 18.649 18.6337 18.649H23.4195C25.8006 18.649 26.9497 19.7507 26.9497 22.0252V24.1575C26.9497 26.432 25.7887 27.5337 23.4195 27.5337ZM18.6337 20.426C17.1292 20.426 16.8804 20.8287 16.8804 22.0252V24.1575C16.8804 25.354 17.1292 25.7567 18.6337 25.7567H23.4195C24.924 25.7567 25.1727 25.354 25.1727 24.1575V22.0252C25.1727 20.8287 24.924 20.426 23.4195 20.426H18.6337Z" fill="#7B7B7B"/>
</svg>
