<svg width="28" height="28" viewBox="0 0 28 28" fill="none" xmlns="http://www.w3.org/2000/svg">
<path d="M14.2534 13.6591C14.2195 13.6591 14.1969 13.6591 14.163 13.6591C14.1066 13.6478 14.0275 13.6478 13.9598 13.6591C10.685 13.5574 8.21191 10.9828 8.21191 7.80958C8.21191 4.57993 10.8431 1.94879 14.0727 1.94879C17.3023 1.94879 19.9335 4.57993 19.9335 7.80958C19.9222 10.9828 17.4379 13.5574 14.2873 13.6591C14.276 13.6591 14.2647 13.6591 14.2534 13.6591ZM14.0727 3.64266C11.7803 3.64266 9.90578 5.51721 9.90578 7.80958C9.90578 10.0681 11.6674 11.8862 13.9146 11.9652C13.9711 11.9539 14.1292 11.9539 14.276 11.9652C16.4893 11.8636 18.2283 10.0455 18.2396 7.80958C18.2396 5.51721 16.3651 3.64266 14.0727 3.64266Z" fill="#7B7B7B"/>
<path d="M14.2647 26.0018C12.0514 26.0018 9.82676 25.4372 8.14419 24.3079C6.57454 23.269 5.71631 21.8461 5.71631 20.2991C5.71631 18.752 6.57454 17.3179 8.14419 16.2677C11.5319 14.0205 17.0201 14.0205 20.3852 16.2677C21.9436 17.3066 22.8131 18.7294 22.8131 20.2765C22.8131 21.8236 21.9549 23.2577 20.3852 24.3079C18.6913 25.4372 16.478 26.0018 14.2647 26.0018ZM9.08146 17.6905C7.99739 18.4132 7.41018 19.3392 7.41018 20.3104C7.41018 21.2702 8.00868 22.1962 9.08146 22.9076C11.8933 24.7935 16.6361 24.7935 19.4479 22.9076C20.532 22.1849 21.1192 21.2589 21.1192 20.2878C21.1192 19.3279 20.5207 18.4019 19.4479 17.6905C16.6361 15.816 11.8933 15.816 9.08146 17.6905Z" fill="#7B7B7B"/>
</svg>
