<svg width="24" height="25" viewBox="0 0 24 25" fill="none" xmlns="http://www.w3.org/2000/svg">
<path d="M12 0.308167C9.62665 0.308167 7.30657 1.01196 5.33317 2.33054C3.35978 3.64912 1.82171 5.52326 0.913453 7.71598C0.00519943 9.9087 -0.232441 12.3215 0.230583 14.6493C0.693606 16.9771 1.8365 19.1153 3.51473 20.7935C5.19297 22.4717 7.33117 23.6146 9.65894 24.0776C11.9867 24.5407 14.3995 24.303 16.5922 23.3948C18.785 22.4865 20.6591 20.9484 21.9777 18.9751C23.2963 17.0017 24.0001 14.6816 24.0001 12.3082C23.9967 9.12662 22.7313 6.07632 20.4816 3.8266C18.2319 1.57689 15.1816 0.311526 12 0.308167ZM12 22.4621C9.99179 22.4621 8.02864 21.8666 6.35885 20.7508C4.68905 19.6351 3.3876 18.0493 2.61908 16.1939C1.85056 14.3385 1.64948 12.2969 2.04127 10.3273C2.43306 8.35762 3.40012 6.54837 4.82016 5.12832C6.24021 3.70828 8.04945 2.74122 10.0191 2.34943C11.9888 1.95764 14.0304 2.15872 15.8858 2.92724C17.7411 3.69576 19.3269 4.99721 20.4427 6.66701C21.5584 8.3368 22.1539 10.2999 22.1539 12.3082C22.1508 15.0002 21.0801 17.5811 19.1765 19.4847C17.273 21.3883 14.6921 22.459 12 22.4621ZM16.6154 14.6159C16.6154 15.4727 16.275 16.2945 15.6692 16.9004C15.0633 17.5063 14.2415 17.8467 13.3847 17.8467H12.9231V18.7697C12.9231 19.0146 12.8259 19.2494 12.6527 19.4225C12.4796 19.5956 12.2448 19.6928 12 19.6928C11.7552 19.6928 11.5204 19.5956 11.3473 19.4225C11.1742 19.2494 11.077 19.0146 11.077 18.7697V17.8467H9.2308C8.98598 17.8467 8.75119 17.7494 8.57808 17.5763C8.40497 17.4032 8.30772 17.1684 8.30772 16.9236C8.30772 16.6788 8.40497 16.444 8.57808 16.2709C8.75119 16.0978 8.98598 16.0005 9.2308 16.0005H13.3847C13.7519 16.0005 14.1041 15.8546 14.3637 15.595C14.6234 15.3353 14.7693 14.9831 14.7693 14.6159C14.7693 14.2487 14.6234 13.8965 14.3637 13.6368C14.1041 13.3772 13.7519 13.2313 13.3847 13.2313H10.6154C9.75856 13.2313 8.9368 12.8909 8.33091 12.285C7.72502 11.6791 7.38464 10.8574 7.38464 10.0005C7.38464 9.14364 7.72502 8.32188 8.33091 7.71599C8.9368 7.1101 9.75856 6.76972 10.6154 6.76972H11.077V5.84664C11.077 5.60183 11.1742 5.36704 11.3473 5.19393C11.5204 5.02081 11.7552 4.92356 12 4.92356C12.2448 4.92356 12.4796 5.02081 12.6527 5.19393C12.8259 5.36704 12.9231 5.60183 12.9231 5.84664V6.76972H14.7693C15.0141 6.76972 15.2489 6.86697 15.422 7.04008C15.5951 7.21319 15.6923 7.44798 15.6923 7.6928C15.6923 7.93761 15.5951 8.1724 15.422 8.34551C15.2489 8.51863 15.0141 8.61588 14.7693 8.61588H10.6154C10.2482 8.61588 9.89601 8.76176 9.63634 9.02142C9.37667 9.28109 9.2308 9.63327 9.2308 10.0005C9.2308 10.3677 9.37667 10.7199 9.63634 10.9796C9.89601 11.2392 10.2482 11.3851 10.6154 11.3851H13.3847C14.2415 11.3851 15.0633 11.7255 15.6692 12.3314C16.275 12.9373 16.6154 13.759 16.6154 14.6159Z" fill="#5932EA"/>
</svg>
