<svg width="29" height="29" viewBox="0 0 29 29" fill="none" xmlns="http://www.w3.org/2000/svg">
<path d="M12.216 13.4728H9.01396C8.25271 13.4728 7.63647 14.089 7.63647 14.8503V21.0369H12.216V13.4728V13.4728Z" stroke="#292D32" stroke-width="1.5" stroke-miterlimit="10" stroke-linecap="round" stroke-linejoin="round"/>
<path d="M15.4197 7.97482H13.583C12.8218 7.97482 12.2056 8.59109 12.2056 9.35234V21.0249H16.7852V9.35234C16.7852 8.59109 16.181 7.97482 15.4197 7.97482Z" stroke="#292D32" stroke-width="1.5" stroke-miterlimit="10" stroke-linecap="round" stroke-linejoin="round"/>
<path d="M19.9955 15.5269H16.7935V21.0249H21.3731V16.9044C21.361 16.1432 20.7447 15.5269 19.9955 15.5269Z" stroke="#292D32" stroke-width="1.5" stroke-miterlimit="10" stroke-linecap="round" stroke-linejoin="round"/>
<path d="M10.8748 26.5832H18.1248C24.1665 26.5832 26.5832 24.1665 26.5832 18.1248V10.8748C26.5832 4.83317 24.1665 2.4165 18.1248 2.4165H10.8748C4.83317 2.4165 2.4165 4.83317 2.4165 10.8748V18.1248C2.4165 24.1665 4.83317 26.5832 10.8748 26.5832Z" stroke="#292D32" stroke-width="1.5" stroke-linecap="round" stroke-linejoin="round"/>
</svg>
